#!OML:ASF X:\für Bonn\!DataBase\2005_08_12_Daniel\c3d\Daniel.ASF
:FULLY-SPECIFIED
:DEGREES
64
root 2.82361 17.6249 17.5822 -5.34361 12.1006 0.799039
lowerback 5.42999 0.297238 1.11941
upperback 1.16045 0.374412 -4.61315
thorax -1.8113 0.180583 -5.44008
lowerneck 1.82188 -3.19226 -0.871672
upperneck 10.0553 -4.46875 2.58871
head 2.97982 -2.1673 0.890518
rclavicle -6.88292e-015 -3.18055e-015
rhumerus 22.7377 1.19576 -67.8367
rradius 75.5889
rwrist 4.40498
rhand -27.1204 8.26985
rfingers 7.12502
rthumb -0.536394 -21.7092
lclavicle -6.88292e-015 -3.18055e-015
lhumerus -38.4149 41.9233 59.9763
lradius 17.8642
lwrist -39.6352
lhand -10.8471 -5.50357
lfingers 7.12502
lthumb 15.1678 23.9205
rfemur 6.54996 17.6052 20.5895
rtibia 18.0066
rfoot -26.402 -25.177
rtoes -11.5692
lfemur 0.312768 -18.563 -20.983
ltibia 27.1267
lfoot -21.7383 7.69175
ltoes -14.1821
65
root 2.82031 17.6253 17.5816 -5.35043 12.1589 0.798206
lowerback 5.43547 0.369594 1.20121
upperback 1.15949 0.474563 -4.68584
thorax -1.80369 0.230633 -5.57069
lowerneck 1.80305 -3.27504 -0.819673
upperneck 10.0718 -4.58417 2.63291
head 2.99134 -2.22101 0.892944
rclavicle 1.46107e-014 -1.90833e-014
rhumerus 24.1979 1.02517 -67.3022
rradius 73.6852
rwrist 4.57574
rhand -26.9318 8.52423
rfingers 7.12502
rthumb -0.354252 -21.4552
lclavicle 1.46107e-014 -1.90833e-014
lhumerus -38.298 41.9666 59.8652
lradius 17.7876
lwrist -39.8704
lhand -10.833 -5.53774
lfingers 7.12502
lthumb 15.1813 23.8853
rfemur 6.54665 17.5432 20.5946
rtibia 18.0235
rfoot -26.4063 -25.175
rtoes -11.5919
lfemur 0.292942 -18.5611 -20.9589
ltibia 27.1329
lfoot -21.7212 7.62698
ltoes -14.1877
66
root 2.8165 17.6252 17.5812 -5.35001 12.2042 0.798642
lowerback 5.4454 0.4374 1.26636
upperback 1.14741 0.56743 -4.74836
thorax -1.81057 0.276668 -5.68082
lowerneck 1.7765 -3.34599 -0.790485
upperneck 10.0989 -4.68502 2.69051
head 3.00869 -2.26772 0.903753
rclavicle -4.5472e-015 -9.54166e-015
rhumerus 25.6734 0.896567 -66.7672
rradius 71.712
rwrist 4.73886
rhand -26.7352 8.7729
rfingers 7.12502
rthumb -0.164339 -21.2068
lclavicle -4.5472e-015 -9.54166e-015
lhumerus -38.2109 42.0026 59.7629
lradius 17.7327
lwrist -40.0475
lhand -10.8248 -5.56929
lfingers 7.12502
lthumb 15.1892 23.8532
rfemur 6.53541 17.4813 20.5962
rtibia 18.0408
rfoot -26.4047 -25.1627
rtoes -11.6065
lfemur 0.269645 -18.5332 -20.9321
ltibia 27.1389
lfoot -21.7025 7.56485
ltoes -14.2417
67
root 2.81259 17.6251 17.581 -5.35738 12.2533 0.798443
lowerback 5.45475 0.507169 1.33604
upperback 1.14053 0.663394 -4.81237
thorax -1.81091 0.324459 -5.79536
lowerneck 1.7592 -3.42119 -0.765414
upperneck 10.1283 -4.79194 2.75232
head 3.02561 -2.31748 0.916602
rclavicle -1.81515e-014 1.74931e-014
rhumerus 27.1061 0.777017 -66.2252
rradius 69.7457
rwrist 4.88938
rhand -26.549 8.92399
rfingers 7.12502
rthumb 0.0155483 -21.0558
lclavicle -1.81515e-014 1.74931e-014
lhumerus -38.1172 42.0752 59.6501
lradius 17.6693
lwrist -40.2407
lhand -10.7754 -5.57615
lfingers 7.12502
lthumb 15.2369 23.8427
rfemur 6.5397 17.4529 20.6114
rtibia 18.0504
rfoot -26.4183 -25.1843
rtoes -11.6129
lfemur 0.259417 -18.5568 -20.9169
ltibia 27.1492
lfoot -21.6987 7.53332
ltoes -14.2433
68
root 2.80924 17.625 17.5806 -5.3643 12.2981 0.798496
lowerback 5.46278 0.578442 1.4089
upperback 1.1414 0.761943 -4.87294
thorax -1.80176 0.373874 -5.90822
lowerneck 1.72875 -3.49918 -0.731901
upperneck 10.1389 -4.90119 2.80024
head 3.03788 -2.36859 0.923276
rclavicle 2.83268e-015 -2.70347e-014
rhumerus 28.5822 0.641392 -65.7141
rradius 67.7022
rwrist 5.03122
rhand -26.3346 9.12272
rfingers 7.12502
rthumb 0.222562 -20.8569
lclavicle 2.83268e-015 -2.70347e-014
lhumerus -38.0147 42.1789 59.5302
lradius 17.5804
lwrist -40.5124
lhand -10.7958 -5.62228
lfingers 7.12502
lthumb 15.2172 23.7981
rfemur 6.53328 17.3939 20.6128
rtibia 18.0674
rfoot -26.4035 -25.1768
rtoes -11.574
lfemur 0.245584 -18.5363 -20.8965
ltibia 27.1558
lfoot -21.6819 7.47984
ltoes -14.2974
69
root 2.80536 17.6253 17.5804 -5.37442 12.3468 0.785881
lowerback 5.48862 0.643754 1.49705
upperback 1.11913 0.852358 -4.93571
thorax -1.82668 0.418042 -6.0325
lowerneck 1.73714 -3.56847 -0.71604
upperneck 10.175 -5.00069 2.86729
head 3.05281 -2.41493 0.939937
rclavicle 3.97197e-014 -5.08889e-014
rhumerus 29.9674 0.518494 -65.2394
rradius 65.6713
rwrist 5.2572
rhand -26.0316 9.30212
rfingers 7.12502
rthumb 0.515255 -20.677
lclavicle 3.97197e-014 -5.08889e-014
lhumerus -37.9762 42.2423 59.3831
lradius 17.5365
lwrist -40.7256
lhand -10.7832 -5.62895
lfingers 7.12502
lthumb 15.2293 23.7905
rfemur 6.53275 17.3464 20.6362
rtibia 18.0825
rfoot -26.4098 -25.1825
rtoes -11.6535
lfemur 0.23546 -18.5436 -20.8673
ltibia 27.1642
lfoot -21.671 7.44691
ltoes -14.3472
70
root 2.8017 17.6249 17.58 -5.3855 12.4059 0.797023
lowerback 5.50787 0.710215 1.56772
upperback 1.11834 0.944167 -5.00296
thorax -1.82527 0.463942 -6.15126
lowerneck 1.70387 -3.64438 -0.70991
upperneck 10.1953 -5.10897 2.93528
head 3.07057 -2.46576 0.957688
rclavicle 9.10682e-015 -2.54444e-014
rhumerus 31.3726 0.386133 -64.7575
rradius 63.6337
rwrist 5.45594
rhand -25.6781 9.44807
rfingers 7.12502
rthumb 0.856669 -20.53
lclavicle 9.10682e-015 -2.54444e-014
lhumerus -37.8782 42.3404 59.2593
lradius 17.4481
lwrist -40.99
lhand -10.7846 -5.68102
lfingers 7.12502
lthumb 15.228 23.7385
rfemur 6.54353 17.3087 20.6348
rtibia 18.0953
rfoot -26.4359 -25.1816
rtoes -11.6052
lfemur 0.223681 -18.5244 -20.8579
ltibia 27.1747
lfoot -21.6418 7.38174
ltoes -14.4038
71
root 2.79772 17.6247 17.5794 -5.39331 12.4579 0.796549
lowerback 5.52368 0.775618 1.65171
upperback 1.11504 1.0353 -5.0716
thorax -1.82389 0.509407 -6.27922
lowerneck 1.68371 -3.71681 -0.691526
upperneck 10.2158 -5.21208 2.99618
head 3.08535 -2.51388 0.971358
rclavicle -2.11457e-014 1.59028e-014
rhumerus 32.7472 0.236063 -64.3234
rradius 61.5864
rwrist 5.69187
rhand -25.2266 9.6634
rfingers 7.12502
rthumb 1.29269 -20.3124
lclavicle -2.11457e-014 1.59028e-014
lhumerus -37.8002 42.4644 59.1207
lradius 17.3828
lwrist -41.252
lhand -10.8069 -5.70135
lfingers 7.12502
lthumb 15.2065 23.7198
rfemur 6.54652 17.2662 20.6478
rtibia 18.108
rfoot -26.4467 -25.1926
rtoes -11.6128
lfemur 0.203441 -18.496 -20.8305
ltibia 27.1856
lfoot -21.6234 7.31192
ltoes -14.458
72
root 2.79393 17.6253 17.5791 -5.39287 12.5032 0.797001
lowerback 5.53786 0.849084 1.73569
upperback 1.09896 1.13683 -5.14003
thorax -1.83302 0.559631 -6.40796
lowerneck 1.67386 -3.79182 -0.671712
upperneck 10.251 -5.31938 3.06106
head 3.10351 -2.56378 0.986063
rclavicle -5.70264e-015 1.59028e-015
rhumerus 34.0584 0.0724088 -63.9257
rradius 59.5706
rwrist 6.00989
rhand -24.6737 9.90113
rfingers 7.12502
rthumb 1.82672 -20.0708
lclavicle -5.70264e-015 1.59028e-015
lhumerus -37.7379 42.5771 58.9609
lradius 17.3066
lwrist -41.5534
lhand -10.8015 -5.75739
lfingers 7.12502
lthumb 15.2117 23.6634
rfemur 6.53238 17.2141 20.6505
rtibia 18.126
rfoot -26.4471 -25.1895
rtoes -11.6262
lfemur 0.184631 -18.5036 -20.814
ltibia 27.1926
lfoot -21.6104 7.28449
ltoes -14.5089
73
root 2.78999 17.6251 17.5788 -5.39933 12.5533 0.796735
lowerback 5.54756 0.915055 1.81849
upperback 1.09534 1.22893 -5.20052
thorax -1.8276 0.605706 -6.52672
lowerneck 1.66544 -3.86207 -0.68141
upperneck 10.258 -5.41997 3.13459
head 3.11303 -2.61152 1.00896
rclavicle 2.81032e-014 -1.59028e-014
rhumerus 35.3804 -0.0980925 -63.5389
rradius 57.5576
rwrist 6.3285
rhand -24.0087 10.2215
rfingers 7.12502
rthumb 2.46895 -19.7439
lclavicle 2.81032e-014 -1.59028e-014
lhumerus -37.6319 42.623 58.8929
lradius 17.2547
lwrist -41.7426
lhand -10.7868 -5.76709
lfingers 7.12502
lthumb 15.2259 23.6526
rfemur 6.5316 17.1667 20.6597
rtibia 18.1384
rfoot -26.4238 -25.2011
rtoes -11.6207
lfemur 0.166604 -18.4778 -20.7883
ltibia 27.2036
lfoot -21.5956 7.21919
ltoes -14.5626
74
root 2.78662 17.625 17.578 -5.40601 12.5988 0.79829
lowerback 5.57128 0.986273 1.90429
upperback 1.08535 1.32785 -5.26687
thorax -1.83505 0.654793 -6.65457
lowerneck 1.64835 -3.9411 -0.664629
upperneck 10.2887 -5.53253 3.19753
head 3.13134 -2.66415 1.02327
rclavicle -3.89369e-014 7.95139e-015
rhumerus 36.6764 -0.26677 -63.1793
rradius 55.5153
rwrist 6.70001
rhand -23.3291 10.5442
rfingers 7.12502
rthumb 3.12528 -19.4127
lclavicle -3.89369e-014 7.95139e-015
lhumerus -37.5605 42.7408 58.7651
lradius 17.1844
lwrist -42.0322
lhand -10.8186 -5.78303
lfingers 7.12502
lthumb 15.1952 23.639
rfemur 6.53088 17.1176 20.6589
rtibia 18.149
rfoot -26.4405 -25.1815
rtoes -11.585
lfemur 0.150619 -18.4884 -20.7779
ltibia 27.2139
lfoot -21.5803 7.19632
ltoes -14.6169
75
root 2.78281 17.6252 17.5776 -5.41289 12.6447 0.798337
lowerback 5.59133 1.05156 1.98942
upperback 1.07696 1.41885 -5.3395
thorax -1.83914 0.700029 -6.78825
lowerneck 1.6445 -4.01087 -0.613986
upperneck 10.305 -5.63108 3.2432
head 3.14012 -2.70941 1.02682
rclavicle 5.24295e-015 2.70347e-014
rhumerus 37.9622 -0.400044 -62.7954
rradius 53.4609
rwrist 7.05237
rhand -22.6661 10.8623
rfingers 7.12502
rthumb 3.76553 -19.0842
lclavicle 5.24295e-015 2.70347e-014
lhumerus -37.4643 42.8221 58.6458
lradius 17.1139
lwrist -42.2898
lhand -10.831 -5.81518
lfingers 7.12502
lthumb 15.1833 23.6078
rfemur 6.53383 17.0888 20.6738
rtibia 18.1644
rfoot -26.4503 -25.1969
rtoes -11.5842
lfemur 0.134029 -18.4636 -20.7542
ltibia 27.2231
lfoot -21.5648 7.13619
ltoes -14.6694
76
root 2.77874 17.6253 17.5767 -5.41342 12.6937 0.797094
lowerback 5.61645 1.11919 2.06142
upperback 1.05668 1.51203 -5.3977
thorax -1.85834 0.745775 -6.89962
lowerneck 1.64932 -4.08084 -0.59762
upperneck 10.3321 -5.73085 3.30155
head 3.15277 -2.75606 1.04044
rclavicle -2.00027e-015 -1.11319e-014
rhumerus 39.1552 -0.568575 -62.4954
rradius 51.5004
rwrist 7.53514
rhand -21.9531 11.2077
rfingers 7.12502
rthumb 4.45405 -18.7255
lclavicle -2.00027e-015 -1.11319e-014
lhumerus -37.4249 42.9422 58.5108
lradius 17.0658
lwrist -42.551
lhand -10.8398 -5.85484
lfingers 7.12502
lthumb 15.1748 23.5687
rfemur 6.52923 17.0763 20.6877
rtibia 18.1736
rfoot -26.4861 -25.2138
rtoes -11.5377
lfemur 0.104997 -18.4388 -20.7244
ltibia 27.2347
lfoot -21.5469 7.07228
ltoes -14.7229
77
root 2.77494 17.6251 17.5763 -5.42117 12.7386 0.797225
lowerback 5.63513 1.18565 2.13652
upperback 1.05368 1.60449 -5.4596
thorax -1.85548 0.792097 -7.01625
lowerneck 1.60107 -4.1505 -0.580673
upperneck 10.3836 -5.83224 3.36737
head 3.18406 -2.80235 1.05509
rclavicle -3.08116e-015 -3.81667e-014
rhumerus 40.351 -0.714715 -62.1872
rradius 49.554
rwrist 7.95324
rhand -21.2438 11.4796
rfingers 7.12502
rthumb 5.13892 -18.4381
lclavicle -3.08116e-015 -3.81667e-014
lhumerus -37.3007 42.9759 58.4604
lradius 17.0085
lwrist -42.7174
lhand -10.815 -5.86668
lfingers 7.12502
lthumb 15.1987 23.5551
rfemur 6.52379 17.0241 20.693
rtibia 18.1915
rfoot -26.4863 -25.2103
rtoes -11.5514
lfemur 0.0941422 -18.4438 -20.7099
ltibia 27.2434
lfoot -21.5352 7.04283
ltoes -14.7743
78
root 2.7713 17.6254 17.5754 -5.42823 12.7832 0.796307
lowerback 5.66328 1.24991 2.20122
upperback 1.04205 1.69322 -5.511
thorax -1.86758 0.835999 -7.11599
lowerneck 1.58875 -4.22517 -0.537374
upperneck 10.413 -5.93528 3.38298
head 3.19814 -2.85073 1.04967
rclavicle 8.57259e-016 -3.18055e-014
rhumerus 41.5069 -0.800319 -61.7961
rradius 47.6222
rwrist 8.26814
rhand -20.6624 11.7465
rfingers 7.12502
rthumb 5.70031 -18.1569
lclavicle 8.57259e-016 -3.18055e-014
lhumerus -37.2599 43.1195 58.336
lradius 16.9557
lwrist -43.0239
lhand -10.8394 -5.89102
lfingers 7.12502
lthumb 15.1752 23.5325
rfemur 6.5219 16.9759 20.6982
rtibia 18.2084
rfoot -26.4973 -25.1928
rtoes -11.4601
lfemur 0.0761623 -18.4201 -20.6855
ltibia 27.2525
lfoot -21.5072 6.98478
ltoes -14.8291
